<svg width="383" height="96" viewBox="0 0 383 96" fill="none" xmlns="http://www.w3.org/2000/svg">
<path fill-rule="evenodd" clip-rule="evenodd" d="M64.8472 83.9508C63.5833 83.7447 62.3519 82.5602 62.0791 81.2877C61.7224 79.6252 62.4824 78.0695 64.0354 77.2824C65.1084 76.7388 66.4137 75.669 67.3666 74.5523C71.4684 69.7456 72.3212 63.533 69.6589 57.8518C67.7984 53.8817 63.9988 50.6268 59.9428 49.5285C58.0553 49.0173 56.6471 48.9286 52.1118 49.0353L47.851 49.1357L47.8944 52.817L47.938 56.4985L48.3259 57.0841C48.9541 58.0328 49.66 58.4117 50.9329 58.4831C51.8622 58.5353 52.1537 58.4903 52.9989 58.1636C54.9091 57.4255 57.0342 57.5338 58.8671 58.4626C61.3753 59.7337 62.8496 62.985 62.1984 65.8096C61.6677 68.1114 59.6849 70.1113 57.2312 70.8197C55.901 71.2037 54.1226 71.063 52.788 70.4682C51.0527 69.6948 49.9232 69.7454 48.9017 70.6421C48.2884 71.1807 47.9469 71.8473 47.7324 72.925C47.1148 76.0283 45.8992 78.4558 44.0237 80.3313C42.3295 82.0256 40.562 83.0231 38.1864 83.6256L36.8665 83.9605H28.0528C20.5874 83.9605 19.0363 83.9258 17.9139 83.7339C9.87469 82.3589 3.60821 77.0161 1.04867 69.355C-0.0509418 66.0634 0.000373961 67.0923 0.000373961 48.3236C0.000373961 35.3784 0.0414221 31.3151 0.182002 30.359C1.23986 23.1654 5.17961 17.646 11.6453 14.2994C13.3127 13.4363 14.7226 12.9338 16.8699 12.437C18.402 12.0826 18.4849 12.0788 25.8354 12.0225C34.1258 11.9591 34.2333 11.969 35.3124 12.8927C36.8917 14.2445 36.9249 16.7588 35.3844 18.3577C35.0692 18.6849 34.2259 19.2192 33.2453 19.7129C29.7016 21.4974 27.5666 23.6444 25.9313 27.0681C24.6493 29.7516 24.1245 32.952 24.5297 35.6156C25.3406 40.9466 28.6058 45.2873 33.5539 47.6122C36.3039 48.9043 37.7916 49.11 43.5545 48.9953L47.7272 48.9122L47.7241 45.3845C47.7207 41.4688 47.6612 41.1543 46.7646 40.3081C45.8274 39.4235 44.6788 39.3288 42.6808 39.9717C41.4435 40.3698 41.2075 40.4012 39.8547 40.3476C38.6397 40.2997 38.2068 40.2186 37.4068 39.8892C36.248 39.4121 34.741 38.0728 34.0975 36.9481C32.5978 34.327 33.1382 30.8589 35.3678 28.7947C36.3786 27.859 37.3601 27.3675 38.8077 27.0723C40.1747 26.7935 41.4711 26.9503 42.9289 27.5706C44.247 28.1315 44.6736 28.2027 45.5113 28.0018C46.0602 27.8701 46.3912 27.6714 46.8797 27.1809C47.6646 26.3926 47.824 25.9006 48.0055 23.7065C48.3056 20.077 49.4311 17.6703 51.9149 15.3465C53.1995 14.1447 54.0883 13.5789 55.751 12.9044C58.0523 11.9708 58.1698 11.9625 68.2618 12.0205C77.0422 12.0712 77.3622 12.0824 78.725 12.3889C80.6637 12.8247 81.9812 13.2908 83.7428 14.1644C85.9298 15.2487 87.6536 16.4847 89.4255 18.2387C92.3355 21.1197 94.3885 24.8341 95.2279 28.736C95.776 31.2839 95.8294 33.3428 95.768 49.5185C95.7112 64.4452 95.7005 64.9589 95.414 66.4583C93.9281 74.2366 88.3603 80.6245 81.0381 82.9521C78.2511 83.8381 77.2056 83.946 70.9769 83.9904C67.8752 84.0127 65.1169 83.9948 64.8472 83.9508Z" fill="white"/>
<path d="M149.168 46.96C151.771 47.5147 153.861 48.816 155.44 50.864C157.019 52.8693 157.808 55.1733 157.808 57.776C157.808 61.5307 156.485 64.5173 153.84 66.736C151.237 68.912 147.589 70 142.896 70H121.968V25.072H142.192C146.757 25.072 150.32 26.1173 152.88 28.208C155.483 30.2987 156.784 33.136 156.784 36.72C156.784 39.3653 156.08 41.5627 154.672 43.312C153.307 45.0613 151.472 46.2773 149.168 46.96ZM132.912 43.248H140.08C141.872 43.248 143.237 42.864 144.176 42.096C145.157 41.2853 145.648 40.112 145.648 38.576C145.648 37.04 145.157 35.8667 144.176 35.056C143.237 34.2453 141.872 33.84 140.08 33.84H132.912V43.248ZM140.976 61.168C142.811 61.168 144.219 60.7627 145.2 59.952C146.224 59.0987 146.736 57.8827 146.736 56.304C146.736 54.7253 146.203 53.488 145.136 52.592C144.112 51.696 142.683 51.248 140.848 51.248H132.912V61.168H140.976ZM175.1 40.24C176.38 38.2773 177.98 36.7413 179.9 35.632C181.82 34.48 183.953 33.904 186.3 33.904V45.488H183.292C180.561 45.488 178.513 46.0853 177.148 47.28C175.782 48.432 175.1 50.48 175.1 53.424V70H164.156V34.288H175.1V40.24ZM197.035 30.576C195.115 30.576 193.536 30.0213 192.299 28.912C191.104 27.76 190.507 26.352 190.507 24.688C190.507 22.9813 191.104 21.5733 192.299 20.464C193.536 19.312 195.115 18.736 197.035 18.736C198.912 18.736 200.448 19.312 201.643 20.464C202.88 21.5733 203.499 22.9813 203.499 24.688C203.499 26.352 202.88 27.76 201.643 28.912C200.448 30.0213 198.912 30.576 197.035 30.576ZM202.475 34.288V70H191.531V34.288H202.475ZM230.31 60.72V70H224.742C220.774 70 217.68 69.04 215.462 67.12C213.243 65.1573 212.134 61.9787 212.134 57.584V43.376H207.782V34.288H212.134V25.584H223.078V34.288H230.246V43.376H223.078V57.712C223.078 58.7787 223.334 59.5467 223.846 60.016C224.358 60.4853 225.211 60.72 226.406 60.72H230.31ZM270.069 51.568C270.069 52.592 270.006 53.6587 269.878 54.768H245.11C245.28 56.9867 245.984 58.6933 247.222 59.888C248.502 61.04 250.059 61.616 251.894 61.616C254.624 61.616 256.523 60.464 257.59 58.16H269.238C268.64 60.5067 267.552 62.6187 265.974 64.496C264.438 66.3733 262.496 67.8453 260.15 68.912C257.803 69.9787 255.179 70.512 252.278 70.512C248.779 70.512 245.664 69.7653 242.934 68.272C240.203 66.7787 238.07 64.6453 236.534 61.872C234.998 59.0987 234.23 55.856 234.23 52.144C234.23 48.432 234.976 45.1893 236.47 42.416C238.006 39.6427 240.139 37.5093 242.87 36.016C245.6 34.5227 248.736 33.776 252.278 33.776C255.734 33.776 258.806 34.5013 261.494 35.952C264.182 37.4027 266.272 39.472 267.766 42.16C269.302 44.848 270.069 47.984 270.069 51.568ZM258.87 48.688C258.87 46.8107 258.23 45.3173 256.95 44.208C255.67 43.0987 254.07 42.544 252.15 42.544C250.315 42.544 248.758 43.0773 247.478 44.144C246.24 45.2107 245.472 46.7253 245.174 48.688H258.87ZM321.411 33.904C325.848 33.904 329.368 35.248 331.971 37.936C334.616 40.624 335.939 44.3573 335.939 49.136V70H325.059V50.608C325.059 48.304 324.44 46.5333 323.203 45.296C322.008 44.016 320.344 43.376 318.211 43.376C316.078 43.376 314.392 44.016 313.155 45.296C311.96 46.5333 311.363 48.304 311.363 50.608V70H300.483V50.608C300.483 48.304 299.864 46.5333 298.627 45.296C297.432 44.016 295.768 43.376 293.635 43.376C291.502 43.376 289.816 44.016 288.579 45.296C287.384 46.5333 286.787 48.304 286.787 50.608V70H275.843V34.288H286.787V38.768C287.896 37.2747 289.347 36.1013 291.139 35.248C292.931 34.352 294.958 33.904 297.219 33.904C299.907 33.904 302.296 34.48 304.387 35.632C306.52 36.784 308.184 38.4267 309.379 40.56C310.616 38.5973 312.302 36.9973 314.435 35.76C316.568 34.5227 318.894 33.904 321.411 33.904ZM378.857 34.288V70H367.913V65.136C366.804 66.7147 365.289 67.9947 363.369 68.976C361.492 69.9147 359.401 70.384 357.097 70.384C354.366 70.384 351.956 69.7867 349.865 68.592C347.774 67.3547 346.153 65.584 345.001 63.28C343.849 60.976 343.273 58.2667 343.273 55.152V34.288H354.153V53.68C354.153 56.0693 354.772 57.9253 356.009 59.248C357.246 60.5707 358.91 61.232 361.001 61.232C363.134 61.232 364.82 60.5707 366.057 59.248C367.294 57.9253 367.913 56.0693 367.913 53.68V34.288H378.857Z" fill="white"/>
</svg>
